<mxfile host="app.diagrams.net" modified="2024-08-19T11:42:27.841Z" agent="Mozilla/5.0 (Windows NT 10.0; Win64; x64) AppleWebKit/537.36 (KHTML, like Gecko) Chrome/127.0.0.0 Safari/537.36" etag="aqzOnll4XMAEGocJyJPy" version="24.6.5" type="device">
  <diagram name="Page-1" id="XGJgBqqhDIO9X4qs0g4J">
    <mxGraphModel dx="2147" dy="1998" grid="1" gridSize="10" guides="1" tooltips="1" connect="1" arrows="1" fold="1" page="1" pageScale="1" pageWidth="850" pageHeight="1100" math="0" shadow="0">
      <root>
        <mxCell id="0" />
        <mxCell id="1" parent="0" />
        <mxCell id="xrxJ7H1sq5LywTgbPfui-10" style="edgeStyle=orthogonalEdgeStyle;rounded=0;orthogonalLoop=1;jettySize=auto;html=1;entryX=0.5;entryY=0;entryDx=0;entryDy=0;" edge="1" parent="1" source="xrxJ7H1sq5LywTgbPfui-1" target="xrxJ7H1sq5LywTgbPfui-4">
          <mxGeometry relative="1" as="geometry" />
        </mxCell>
        <mxCell id="xrxJ7H1sq5LywTgbPfui-11" style="edgeStyle=orthogonalEdgeStyle;rounded=0;orthogonalLoop=1;jettySize=auto;html=1;exitX=0.25;exitY=1;exitDx=0;exitDy=0;" edge="1" parent="1" source="xrxJ7H1sq5LywTgbPfui-1" target="xrxJ7H1sq5LywTgbPfui-7">
          <mxGeometry relative="1" as="geometry" />
        </mxCell>
        <mxCell id="xrxJ7H1sq5LywTgbPfui-13" style="edgeStyle=orthogonalEdgeStyle;rounded=0;orthogonalLoop=1;jettySize=auto;html=1;exitX=0.75;exitY=1;exitDx=0;exitDy=0;entryX=0.5;entryY=0;entryDx=0;entryDy=0;" edge="1" parent="1" source="xrxJ7H1sq5LywTgbPfui-1" target="xrxJ7H1sq5LywTgbPfui-5">
          <mxGeometry relative="1" as="geometry" />
        </mxCell>
        <mxCell id="xrxJ7H1sq5LywTgbPfui-14" style="edgeStyle=orthogonalEdgeStyle;rounded=0;orthogonalLoop=1;jettySize=auto;html=1;exitX=1;exitY=0.75;exitDx=0;exitDy=0;" edge="1" parent="1" source="xrxJ7H1sq5LywTgbPfui-1" target="xrxJ7H1sq5LywTgbPfui-6">
          <mxGeometry relative="1" as="geometry" />
        </mxCell>
        <mxCell id="xrxJ7H1sq5LywTgbPfui-15" style="edgeStyle=orthogonalEdgeStyle;rounded=0;orthogonalLoop=1;jettySize=auto;html=1;exitX=1;exitY=0.5;exitDx=0;exitDy=0;entryX=0.5;entryY=0;entryDx=0;entryDy=0;" edge="1" parent="1" source="xrxJ7H1sq5LywTgbPfui-1" target="xrxJ7H1sq5LywTgbPfui-3">
          <mxGeometry relative="1" as="geometry" />
        </mxCell>
        <mxCell id="xrxJ7H1sq5LywTgbPfui-1" value="Show current money, income, expense, and saving" style="rounded=0;whiteSpace=wrap;html=1;" vertex="1" parent="1">
          <mxGeometry x="330" y="170" width="120" height="60" as="geometry" />
        </mxCell>
        <mxCell id="xrxJ7H1sq5LywTgbPfui-9" style="edgeStyle=orthogonalEdgeStyle;rounded=0;orthogonalLoop=1;jettySize=auto;html=1;exitX=0.5;exitY=1;exitDx=0;exitDy=0;" edge="1" parent="1" source="xrxJ7H1sq5LywTgbPfui-2" target="xrxJ7H1sq5LywTgbPfui-1">
          <mxGeometry relative="1" as="geometry" />
        </mxCell>
        <mxCell id="xrxJ7H1sq5LywTgbPfui-2" value="Start" style="ellipse;whiteSpace=wrap;html=1;" vertex="1" parent="1">
          <mxGeometry x="330" y="30" width="120" height="80" as="geometry" />
        </mxCell>
        <mxCell id="xrxJ7H1sq5LywTgbPfui-34" style="edgeStyle=orthogonalEdgeStyle;rounded=0;orthogonalLoop=1;jettySize=auto;html=1;" edge="1" parent="1" source="xrxJ7H1sq5LywTgbPfui-3" target="xrxJ7H1sq5LywTgbPfui-16">
          <mxGeometry relative="1" as="geometry" />
        </mxCell>
        <mxCell id="xrxJ7H1sq5LywTgbPfui-3" value="Quit" style="shape=parallelogram;perimeter=parallelogramPerimeter;whiteSpace=wrap;html=1;fixedSize=1;" vertex="1" parent="1">
          <mxGeometry x="690" y="290" width="120" height="60" as="geometry" />
        </mxCell>
        <mxCell id="xrxJ7H1sq5LywTgbPfui-25" style="edgeStyle=orthogonalEdgeStyle;rounded=0;orthogonalLoop=1;jettySize=auto;html=1;" edge="1" parent="1" source="xrxJ7H1sq5LywTgbPfui-4" target="xrxJ7H1sq5LywTgbPfui-24">
          <mxGeometry relative="1" as="geometry" />
        </mxCell>
        <mxCell id="xrxJ7H1sq5LywTgbPfui-4" value="Insert New Data" style="shape=parallelogram;perimeter=parallelogramPerimeter;whiteSpace=wrap;html=1;fixedSize=1;" vertex="1" parent="1">
          <mxGeometry x="30" y="290" width="120" height="60" as="geometry" />
        </mxCell>
        <mxCell id="xrxJ7H1sq5LywTgbPfui-36" style="edgeStyle=orthogonalEdgeStyle;rounded=0;orthogonalLoop=1;jettySize=auto;html=1;" edge="1" parent="1" source="xrxJ7H1sq5LywTgbPfui-5" target="xrxJ7H1sq5LywTgbPfui-18">
          <mxGeometry relative="1" as="geometry" />
        </mxCell>
        <mxCell id="xrxJ7H1sq5LywTgbPfui-5" value="View History" style="shape=parallelogram;perimeter=parallelogramPerimeter;whiteSpace=wrap;html=1;fixedSize=1;" vertex="1" parent="1">
          <mxGeometry x="430" y="290" width="120" height="60" as="geometry" />
        </mxCell>
        <mxCell id="xrxJ7H1sq5LywTgbPfui-35" style="edgeStyle=orthogonalEdgeStyle;rounded=0;orthogonalLoop=1;jettySize=auto;html=1;" edge="1" parent="1" source="xrxJ7H1sq5LywTgbPfui-6" target="xrxJ7H1sq5LywTgbPfui-17">
          <mxGeometry relative="1" as="geometry" />
        </mxCell>
        <mxCell id="xrxJ7H1sq5LywTgbPfui-6" value="Reset" style="shape=parallelogram;perimeter=parallelogramPerimeter;whiteSpace=wrap;html=1;fixedSize=1;" vertex="1" parent="1">
          <mxGeometry x="560" y="290" width="120" height="60" as="geometry" />
        </mxCell>
        <mxCell id="xrxJ7H1sq5LywTgbPfui-20" style="edgeStyle=orthogonalEdgeStyle;rounded=0;orthogonalLoop=1;jettySize=auto;html=1;entryX=0.5;entryY=0;entryDx=0;entryDy=0;" edge="1" parent="1" source="xrxJ7H1sq5LywTgbPfui-7" target="xrxJ7H1sq5LywTgbPfui-19">
          <mxGeometry relative="1" as="geometry" />
        </mxCell>
        <mxCell id="xrxJ7H1sq5LywTgbPfui-7" value="Deposit" style="shape=parallelogram;perimeter=parallelogramPerimeter;whiteSpace=wrap;html=1;fixedSize=1;" vertex="1" parent="1">
          <mxGeometry x="160" y="290" width="120" height="60" as="geometry" />
        </mxCell>
        <mxCell id="xrxJ7H1sq5LywTgbPfui-21" style="edgeStyle=orthogonalEdgeStyle;rounded=0;orthogonalLoop=1;jettySize=auto;html=1;entryX=0.5;entryY=0;entryDx=0;entryDy=0;" edge="1" parent="1" source="xrxJ7H1sq5LywTgbPfui-8" target="xrxJ7H1sq5LywTgbPfui-19">
          <mxGeometry relative="1" as="geometry" />
        </mxCell>
        <mxCell id="xrxJ7H1sq5LywTgbPfui-8" value="Withdraw" style="shape=parallelogram;perimeter=parallelogramPerimeter;whiteSpace=wrap;html=1;fixedSize=1;" vertex="1" parent="1">
          <mxGeometry x="290" y="290" width="120" height="60" as="geometry" />
        </mxCell>
        <mxCell id="xrxJ7H1sq5LywTgbPfui-12" style="edgeStyle=orthogonalEdgeStyle;rounded=0;orthogonalLoop=1;jettySize=auto;html=1;exitX=0.5;exitY=1;exitDx=0;exitDy=0;entryX=0.583;entryY=-0.033;entryDx=0;entryDy=0;entryPerimeter=0;" edge="1" parent="1" source="xrxJ7H1sq5LywTgbPfui-1" target="xrxJ7H1sq5LywTgbPfui-8">
          <mxGeometry relative="1" as="geometry" />
        </mxCell>
        <mxCell id="xrxJ7H1sq5LywTgbPfui-16" value="Close program" style="rounded=0;whiteSpace=wrap;html=1;" vertex="1" parent="1">
          <mxGeometry x="690" y="390" width="120" height="60" as="geometry" />
        </mxCell>
        <mxCell id="xrxJ7H1sq5LywTgbPfui-17" value="Clear all CSVs" style="rounded=0;whiteSpace=wrap;html=1;" vertex="1" parent="1">
          <mxGeometry x="560" y="390" width="120" height="60" as="geometry" />
        </mxCell>
        <mxCell id="xrxJ7H1sq5LywTgbPfui-50" style="edgeStyle=orthogonalEdgeStyle;rounded=0;orthogonalLoop=1;jettySize=auto;html=1;exitX=0;exitY=1;exitDx=0;exitDy=0;entryX=0.5;entryY=0;entryDx=0;entryDy=0;" edge="1" parent="1" source="xrxJ7H1sq5LywTgbPfui-18" target="xrxJ7H1sq5LywTgbPfui-44">
          <mxGeometry relative="1" as="geometry">
            <Array as="points">
              <mxPoint x="430" y="570" />
              <mxPoint x="310" y="570" />
            </Array>
          </mxGeometry>
        </mxCell>
        <mxCell id="xrxJ7H1sq5LywTgbPfui-51" style="edgeStyle=orthogonalEdgeStyle;rounded=0;orthogonalLoop=1;jettySize=auto;html=1;exitX=0.25;exitY=1;exitDx=0;exitDy=0;entryX=0.5;entryY=0;entryDx=0;entryDy=0;" edge="1" parent="1" source="xrxJ7H1sq5LywTgbPfui-18" target="xrxJ7H1sq5LywTgbPfui-45">
          <mxGeometry relative="1" as="geometry" />
        </mxCell>
        <mxCell id="xrxJ7H1sq5LywTgbPfui-53" style="edgeStyle=orthogonalEdgeStyle;rounded=0;orthogonalLoop=1;jettySize=auto;html=1;exitX=0.75;exitY=1;exitDx=0;exitDy=0;entryX=0.5;entryY=0;entryDx=0;entryDy=0;" edge="1" parent="1" source="xrxJ7H1sq5LywTgbPfui-18" target="xrxJ7H1sq5LywTgbPfui-47">
          <mxGeometry relative="1" as="geometry">
            <Array as="points">
              <mxPoint x="520" y="530" />
              <mxPoint x="900" y="530" />
            </Array>
          </mxGeometry>
        </mxCell>
        <mxCell id="xrxJ7H1sq5LywTgbPfui-54" style="edgeStyle=orthogonalEdgeStyle;rounded=0;orthogonalLoop=1;jettySize=auto;html=1;exitX=1;exitY=1;exitDx=0;exitDy=0;" edge="1" parent="1" source="xrxJ7H1sq5LywTgbPfui-18" target="xrxJ7H1sq5LywTgbPfui-48">
          <mxGeometry relative="1" as="geometry">
            <Array as="points">
              <mxPoint x="550" y="520" />
              <mxPoint x="1050" y="520" />
            </Array>
          </mxGeometry>
        </mxCell>
        <mxCell id="xrxJ7H1sq5LywTgbPfui-18" value="Show content of history.csv and menu" style="rounded=0;whiteSpace=wrap;html=1;" vertex="1" parent="1">
          <mxGeometry x="430" y="390" width="120" height="60" as="geometry" />
        </mxCell>
        <mxCell id="xrxJ7H1sq5LywTgbPfui-23" style="edgeStyle=orthogonalEdgeStyle;rounded=0;orthogonalLoop=1;jettySize=auto;html=1;" edge="1" parent="1" source="xrxJ7H1sq5LywTgbPfui-19" target="xrxJ7H1sq5LywTgbPfui-22">
          <mxGeometry relative="1" as="geometry" />
        </mxCell>
        <mxCell id="xrxJ7H1sq5LywTgbPfui-19" value="Insert amount" style="shape=parallelogram;perimeter=parallelogramPerimeter;whiteSpace=wrap;html=1;fixedSize=1;" vertex="1" parent="1">
          <mxGeometry x="210" y="390" width="120" height="60" as="geometry" />
        </mxCell>
        <mxCell id="xrxJ7H1sq5LywTgbPfui-22" value="Make necessary changes to saving.csv and history.csv" style="rounded=0;whiteSpace=wrap;html=1;" vertex="1" parent="1">
          <mxGeometry x="210" y="490" width="120" height="60" as="geometry" />
        </mxCell>
        <mxCell id="xrxJ7H1sq5LywTgbPfui-29" style="edgeStyle=orthogonalEdgeStyle;rounded=0;orthogonalLoop=1;jettySize=auto;html=1;" edge="1" parent="1" source="xrxJ7H1sq5LywTgbPfui-24" target="xrxJ7H1sq5LywTgbPfui-26">
          <mxGeometry relative="1" as="geometry" />
        </mxCell>
        <mxCell id="xrxJ7H1sq5LywTgbPfui-24" value="Show choices" style="rounded=0;whiteSpace=wrap;html=1;" vertex="1" parent="1">
          <mxGeometry x="30" y="390" width="120" height="60" as="geometry" />
        </mxCell>
        <mxCell id="xrxJ7H1sq5LywTgbPfui-33" style="edgeStyle=orthogonalEdgeStyle;rounded=0;orthogonalLoop=1;jettySize=auto;html=1;entryX=0.5;entryY=0;entryDx=0;entryDy=0;" edge="1" parent="1" source="xrxJ7H1sq5LywTgbPfui-26" target="xrxJ7H1sq5LywTgbPfui-30">
          <mxGeometry relative="1" as="geometry" />
        </mxCell>
        <mxCell id="xrxJ7H1sq5LywTgbPfui-26" value="New Income" style="shape=parallelogram;perimeter=parallelogramPerimeter;whiteSpace=wrap;html=1;fixedSize=1;" vertex="1" parent="1">
          <mxGeometry x="-190" y="490" width="120" height="60" as="geometry" />
        </mxCell>
        <mxCell id="xrxJ7H1sq5LywTgbPfui-32" style="edgeStyle=orthogonalEdgeStyle;rounded=0;orthogonalLoop=1;jettySize=auto;html=1;entryX=0.5;entryY=0;entryDx=0;entryDy=0;" edge="1" parent="1" source="xrxJ7H1sq5LywTgbPfui-27" target="xrxJ7H1sq5LywTgbPfui-31">
          <mxGeometry relative="1" as="geometry" />
        </mxCell>
        <mxCell id="xrxJ7H1sq5LywTgbPfui-27" value="New Expenses" style="shape=parallelogram;perimeter=parallelogramPerimeter;whiteSpace=wrap;html=1;fixedSize=1;" vertex="1" parent="1">
          <mxGeometry x="-40" y="490" width="120" height="60" as="geometry" />
        </mxCell>
        <mxCell id="xrxJ7H1sq5LywTgbPfui-28" style="edgeStyle=orthogonalEdgeStyle;rounded=0;orthogonalLoop=1;jettySize=auto;html=1;entryX=0.611;entryY=-0.011;entryDx=0;entryDy=0;entryPerimeter=0;" edge="1" parent="1" source="xrxJ7H1sq5LywTgbPfui-24" target="xrxJ7H1sq5LywTgbPfui-27">
          <mxGeometry relative="1" as="geometry" />
        </mxCell>
        <mxCell id="xrxJ7H1sq5LywTgbPfui-42" style="edgeStyle=orthogonalEdgeStyle;rounded=0;orthogonalLoop=1;jettySize=auto;html=1;entryX=0.25;entryY=0;entryDx=0;entryDy=0;" edge="1" parent="1" source="xrxJ7H1sq5LywTgbPfui-30" target="xrxJ7H1sq5LywTgbPfui-41">
          <mxGeometry relative="1" as="geometry" />
        </mxCell>
        <mxCell id="xrxJ7H1sq5LywTgbPfui-30" value="Choose income category based on categories.json" style="rounded=0;whiteSpace=wrap;html=1;" vertex="1" parent="1">
          <mxGeometry x="-190" y="600" width="120" height="60" as="geometry" />
        </mxCell>
        <mxCell id="xrxJ7H1sq5LywTgbPfui-43" style="edgeStyle=orthogonalEdgeStyle;rounded=0;orthogonalLoop=1;jettySize=auto;html=1;entryX=0.75;entryY=0;entryDx=0;entryDy=0;" edge="1" parent="1" source="xrxJ7H1sq5LywTgbPfui-31" target="xrxJ7H1sq5LywTgbPfui-41">
          <mxGeometry relative="1" as="geometry" />
        </mxCell>
        <mxCell id="xrxJ7H1sq5LywTgbPfui-31" value="Choose expense category based on categories.json" style="rounded=0;whiteSpace=wrap;html=1;" vertex="1" parent="1">
          <mxGeometry x="-40" y="600" width="120" height="60" as="geometry" />
        </mxCell>
        <mxCell id="xrxJ7H1sq5LywTgbPfui-40" value="MAIN" style="text;html=1;align=center;verticalAlign=middle;whiteSpace=wrap;rounded=0;" vertex="1" parent="1">
          <mxGeometry x="360" y="-40" width="60" height="30" as="geometry" />
        </mxCell>
        <mxCell id="xrxJ7H1sq5LywTgbPfui-41" value="Make necessary changes to income.csv or expenses.csv, and history.csv" style="rounded=0;whiteSpace=wrap;html=1;" vertex="1" parent="1">
          <mxGeometry x="-120" y="710" width="130" height="80" as="geometry" />
        </mxCell>
        <mxCell id="xrxJ7H1sq5LywTgbPfui-44" value="Filter by income / expenses / categories / deposit / withdrawal" style="shape=parallelogram;perimeter=parallelogramPerimeter;whiteSpace=wrap;html=1;fixedSize=1;" vertex="1" parent="1">
          <mxGeometry x="210" y="650" width="200" height="100" as="geometry" />
        </mxCell>
        <mxCell id="xrxJ7H1sq5LywTgbPfui-45" value="Sort ascending / descending by amount of money" style="shape=parallelogram;perimeter=parallelogramPerimeter;whiteSpace=wrap;html=1;fixedSize=1;" vertex="1" parent="1">
          <mxGeometry x="440" y="650" width="200" height="90" as="geometry" />
        </mxCell>
        <mxCell id="xrxJ7H1sq5LywTgbPfui-46" value="Reset Filter" style="shape=parallelogram;perimeter=parallelogramPerimeter;whiteSpace=wrap;html=1;fixedSize=1;" vertex="1" parent="1">
          <mxGeometry x="700" y="665" width="120" height="60" as="geometry" />
        </mxCell>
        <mxCell id="xrxJ7H1sq5LywTgbPfui-47" value="Reset Sort" style="shape=parallelogram;perimeter=parallelogramPerimeter;whiteSpace=wrap;html=1;fixedSize=1;" vertex="1" parent="1">
          <mxGeometry x="840" y="665" width="120" height="60" as="geometry" />
        </mxCell>
        <mxCell id="xrxJ7H1sq5LywTgbPfui-48" value="Back to Main" style="shape=parallelogram;perimeter=parallelogramPerimeter;whiteSpace=wrap;html=1;fixedSize=1;" vertex="1" parent="1">
          <mxGeometry x="990" y="665" width="120" height="60" as="geometry" />
        </mxCell>
        <mxCell id="xrxJ7H1sq5LywTgbPfui-52" style="edgeStyle=orthogonalEdgeStyle;rounded=0;orthogonalLoop=1;jettySize=auto;html=1;exitX=0.5;exitY=1;exitDx=0;exitDy=0;entryX=0.6;entryY=0.039;entryDx=0;entryDy=0;entryPerimeter=0;" edge="1" parent="1" source="xrxJ7H1sq5LywTgbPfui-18" target="xrxJ7H1sq5LywTgbPfui-46">
          <mxGeometry relative="1" as="geometry">
            <Array as="points">
              <mxPoint x="490" y="540" />
              <mxPoint x="772" y="540" />
            </Array>
          </mxGeometry>
        </mxCell>
      </root>
    </mxGraphModel>
  </diagram>
</mxfile>
